<svg width="2868" height="2868" viewBox="0 0 2868 2868" fill="none" xmlns="http://www.w3.org/2000/svg">
<g clip-path="url(#clip0_493_3865)">
<path d="M2312.32 1673C2243.7 1676.64 2175.43 1660.99 2115.24 1627.84C2055.05 1594.68 2005.34 1545.33 1971.75 1485.38C1968.81 1480.47 1964.46 1476.55 1959.27 1474.12C1954.08 1471.7 1948.29 1470.88 1942.63 1471.78C1936.97 1472.68 1931.71 1475.26 1927.53 1479.17C1923.35 1483.09 1920.44 1488.16 1919.17 1493.75L1730.36 2091.25C1717.87 2127.2 1694.18 2158.2 1662.78 2179.71C1631.39 2201.21 1593.92 2212.09 1555.89 2210.75C1517.47 2211.37 1479.89 2199.46 1448.84 2176.82C1417.8 2154.18 1394.97 2122.04 1383.81 2085.27L1106.57 1051.6C1105.2 1044.85 1101.53 1038.77 1096.2 1034.41C1090.86 1030.05 1084.18 1027.67 1077.29 1027.67C1070.4 1027.67 1063.72 1030.05 1058.38 1034.41C1053.05 1038.77 1049.38 1044.85 1048.01 1051.6C1020.96 1206.84 972.705 1357.62 904.612 1499.72C873.262 1556.64 826.125 1603.28 768.881 1634.02C711.636 1664.76 646.724 1678.3 581.962 1673H20.3125C77.1082 2006.82 250.203 2309.77 508.944 2528.21C767.685 2746.65 1095.38 2866.48 1434 2866.48C1772.62 2866.48 2100.31 2746.65 2359.05 2528.21C2617.79 2309.77 2790.89 2006.82 2847.68 1673H2312.32Z" fill="black"/>
<path d="M581.963 1434C694.293 1434 701.463 1434 811.403 1008.58C835.303 910.589 865.178 795.869 901.028 662.029C912.685 625.187 936.011 593.138 967.484 570.718C998.958 548.299 1036.87 536.727 1075.5 537.749C1113.41 536.283 1150.78 547.132 1182.02 568.673C1213.25 590.214 1236.67 621.289 1248.77 657.249L1535.57 1724.38C1537.38 1730.59 1541.16 1736.04 1546.33 1739.92C1551.5 1743.8 1557.79 1745.89 1564.25 1745.89C1570.72 1745.89 1577.01 1743.8 1582.18 1739.92C1587.35 1736.04 1591.12 1730.59 1592.93 1724.38L1754.26 1211.73C1766.01 1177.9 1787.69 1148.39 1816.47 1127.07C1845.25 1105.76 1879.79 1093.61 1915.58 1092.23C1950.19 1089.57 1984.84 1096.95 2015.36 1113.48C2045.88 1130.01 2070.98 1155 2087.66 1185.44L2122.32 1252.36C2191.63 1392.17 2211.94 1425.63 2312.32 1425.63H2868C2866.89 1045.31 2714.74 681.011 2445.03 412.868C2175.32 144.725 1810.14 -5.29261 1429.82 -4.18335C1049.5 -3.07408 685.192 149.071 417.05 418.783C148.907 688.495 -1.11096 1053.68 -0.00170447 1434H581.963Z" fill="black"/>
</g>
<defs>
<clipPath id="clip0_493_3865">
<rect width="2868" height="2868" fill="white"/>
</clipPath>
</defs>
</svg>
