<svg width="12598" height="2868" viewBox="0 0 12598 2868" fill="none" xmlns="http://www.w3.org/2000/svg">
<path d="M3662.55 1010.34V789.455H4823.06V1010.34H4373.48V2244H4112.12V1010.34H3662.55ZM4802.13 2244V1153.09H5051.42V1334.91H5062.79C5082.67 1271.94 5116.76 1223.4 5165.06 1189.31C5213.83 1154.75 5269.46 1137.47 5331.96 1137.47C5346.17 1137.47 5362.03 1138.18 5379.55 1139.6C5397.54 1140.54 5412.46 1142.2 5424.29 1144.57V1381.07C5413.4 1377.29 5396.12 1373.97 5372.45 1371.13C5349.25 1367.82 5326.75 1366.16 5304.97 1366.16C5258.1 1366.16 5215.96 1376.34 5178.55 1396.7C5141.62 1416.59 5112.5 1444.28 5091.2 1479.8C5069.89 1515.31 5059.24 1556.26 5059.24 1602.66V2244H4802.13ZM5769.49 2266.02C5700.36 2266.02 5638.1 2253.71 5582.7 2229.09C5527.78 2203.99 5484.22 2167.06 5452.02 2118.29C5420.3 2069.52 5404.43 2009.39 5404.43 1937.89C5404.43 1876.34 5415.8 1825.44 5438.53 1785.19C5461.25 1744.95 5492.27 1712.75 5531.57 1688.6C5570.86 1664.45 5615.14 1646.23 5664.38 1633.91C5714.09 1621.13 5765.47 1611.9 5818.5 1606.22C5882.42 1599.59 5934.26 1593.67 5974.04 1588.46C6013.81 1582.78 6042.69 1574.26 6060.68 1562.89C6079.15 1551.05 6088.38 1532.83 6088.38 1508.2V1503.94C6088.38 1450.44 6072.52 1409.01 6040.8 1379.65C6009.07 1350.3 5963.38 1335.62 5903.72 1335.62C5840.75 1335.62 5790.8 1349.35 5753.87 1376.81C5717.41 1404.27 5692.79 1436.71 5680 1474.11L5439.95 1440.02C5458.89 1373.73 5490.14 1318.34 5533.7 1273.83C5577.26 1228.85 5630.52 1195.23 5693.5 1172.98C5756.47 1150.25 5826.07 1138.89 5902.3 1138.89C5954.86 1138.89 6007.18 1145.04 6059.26 1157.35C6111.35 1169.66 6158.93 1190.02 6202.02 1218.43C6245.11 1246.37 6279.67 1284.48 6305.71 1332.78C6332.23 1381.07 6345.49 1441.44 6345.49 1513.89V2244H6098.33V2094.14H6089.8C6074.18 2124.45 6052.16 2152.85 6023.75 2179.37C5995.82 2205.41 5960.54 2226.48 5917.93 2242.58C5875.79 2258.2 5826.31 2266.02 5769.49 2266.02ZM5836.25 2077.1C5887.86 2077.1 5932.61 2066.92 5970.49 2046.56C6008.36 2025.72 6037.48 1998.26 6057.84 1964.17C6078.68 1930.08 6089.09 1892.91 6089.09 1852.66V1724.11C6081.04 1730.74 6067.31 1736.9 6047.9 1742.58C6028.96 1748.26 6007.65 1753.23 5983.98 1757.49C5960.31 1761.76 5936.87 1765.54 5913.67 1768.86C5890.47 1772.17 5870.34 1775.01 5853.3 1777.38C5814.95 1782.59 5780.62 1791.11 5750.32 1802.95C5720.01 1814.79 5696.1 1831.36 5678.58 1852.66C5661.06 1873.5 5652.3 1900.49 5652.3 1933.63C5652.3 1980.98 5669.59 2016.73 5704.15 2040.88C5738.71 2065.02 5782.75 2077.1 5836.25 2077.1ZM6959.86 2265.31C6850.96 2265.31 6757.45 2241.4 6679.32 2193.57C6601.67 2145.75 6541.77 2079.7 6499.63 1995.42C6457.97 1910.67 6437.13 1813.13 6437.13 1702.81C6437.13 1592.01 6458.44 1494.24 6501.05 1409.48C6543.67 1324.26 6603.8 1257.97 6681.45 1210.62C6759.58 1162.8 6851.91 1138.89 6958.44 1138.89C7046.98 1138.89 7125.34 1155.22 7193.53 1187.89C7262.18 1220.09 7316.87 1265.78 7357.59 1324.97C7398.31 1383.68 7421.51 1452.33 7427.19 1530.93H7181.45C7171.51 1478.37 7147.83 1434.58 7110.43 1399.54C7073.5 1364.03 7024.02 1346.27 6961.99 1346.27C6909.43 1346.27 6863.27 1360.48 6823.5 1388.89C6783.72 1416.82 6752.71 1457.07 6730.46 1509.62C6708.68 1562.18 6697.79 1625.16 6697.79 1698.55C6697.79 1772.88 6708.68 1836.8 6730.46 1890.31C6752.24 1943.34 6782.78 1984.29 6822.08 2013.18C6861.85 2041.59 6908.49 2055.79 6961.99 2055.79C6999.87 2055.79 7033.72 2048.69 7063.55 2034.48C7093.86 2019.8 7119.19 1998.73 7139.55 1971.27C7159.91 1943.81 7173.88 1910.43 7181.45 1871.13H7427.19C7421.04 1948.31 7398.31 2016.73 7359.01 2076.39C7319.71 2135.57 7266.21 2181.97 7198.5 2215.59C7130.79 2248.73 7051.24 2265.31 6959.86 2265.31ZM7752.68 1901.67L7751.97 1591.3H7793.16L8185.21 1153.09H8485.63L8003.39 1690.02H7950.12L7752.68 1901.67ZM7518.31 2244V789.455H7775.41V2244H7518.31ZM8202.96 2244L7847.85 1747.55L8021.15 1566.44L8510.49 2244H8202.96ZM8548.34 2244V789.455H9480.16V1010.34H8811.84V1405.22H9416.24V1626.1H8811.84V2244H8548.34ZM9845.95 789.455V2244H9588.85V789.455H9845.95ZM10466.2 2265.31C10359.7 2265.31 10267.3 2241.87 10189.2 2194.99C10111.1 2148.12 10050.5 2082.54 10007.4 1998.26C9964.77 1913.98 9943.46 1815.5 9943.46 1702.81C9943.46 1590.12 9964.77 1491.4 10007.4 1406.64C10050.5 1321.89 10111.1 1256.07 10189.2 1209.2C10267.3 1162.32 10359.7 1138.89 10466.2 1138.89C10572.7 1138.89 10665.1 1162.32 10743.2 1209.2C10821.3 1256.07 10881.7 1321.89 10924.3 1406.64C10967.4 1491.4 10988.9 1590.12 10988.9 1702.81C10988.9 1815.5 10967.4 1913.98 10924.3 1998.26C10881.7 2082.54 10821.3 2148.12 10743.2 2194.99C10665.1 2241.87 10572.7 2265.31 10466.2 2265.31ZM10467.6 2059.34C10525.4 2059.34 10573.7 2043.48 10612.5 2011.76C10651.3 1979.56 10680.2 1936.47 10699.1 1882.49C10718.6 1828.52 10728.3 1768.38 10728.3 1702.1C10728.3 1635.34 10718.6 1574.97 10699.1 1520.99C10680.2 1466.54 10651.3 1423.21 10612.5 1391.02C10573.7 1358.82 10525.4 1342.72 10467.6 1342.72C10408.4 1342.72 10359.2 1358.82 10319.9 1391.02C10281.1 1423.21 10251.9 1466.54 10232.5 1520.99C10213.6 1574.97 10204.1 1635.34 10204.1 1702.1C10204.1 1768.38 10213.6 1828.52 10232.5 1882.49C10251.9 1936.47 10281.1 1979.56 10319.9 2011.76C10359.2 2043.48 10408.4 2059.34 10467.6 2059.34ZM11281 2244L10972.8 1153.09H11234.9L11426.6 1920.14H11436.6L11632.6 1153.09H11891.8L12087.8 1915.88H12098.5L12287.4 1153.09H12550.2L12241.3 2244H11973.5L11769 1506.78H11754L11549.5 2244H11281Z" fill="black"/>
<g clip-path="url(#clip0_493_3860)">
<path d="M2312.32 1673C2243.7 1676.64 2175.43 1660.99 2115.24 1627.84C2055.05 1594.68 2005.34 1545.33 1971.75 1485.38C1968.81 1480.47 1964.46 1476.55 1959.27 1474.12C1954.08 1471.7 1948.29 1470.88 1942.63 1471.78C1936.97 1472.68 1931.71 1475.26 1927.53 1479.17C1923.35 1483.09 1920.44 1488.16 1919.17 1493.75L1730.36 2091.25C1717.87 2127.2 1694.18 2158.2 1662.78 2179.71C1631.39 2201.21 1593.92 2212.09 1555.89 2210.75C1517.47 2211.37 1479.89 2199.46 1448.84 2176.82C1417.8 2154.18 1394.97 2122.04 1383.81 2085.27L1106.57 1051.6C1105.2 1044.85 1101.53 1038.77 1096.2 1034.41C1090.86 1030.05 1084.18 1027.67 1077.29 1027.67C1070.4 1027.67 1063.72 1030.05 1058.38 1034.41C1053.05 1038.77 1049.38 1044.85 1048.01 1051.6C1020.96 1206.84 972.705 1357.62 904.612 1499.72C873.262 1556.64 826.125 1603.28 768.881 1634.02C711.636 1664.76 646.724 1678.3 581.962 1673H20.3125C77.1082 2006.82 250.203 2309.77 508.944 2528.21C767.685 2746.65 1095.38 2866.48 1434 2866.48C1772.62 2866.48 2100.31 2746.65 2359.05 2528.21C2617.79 2309.77 2790.89 2006.82 2847.68 1673H2312.32Z" fill="black"/>
<path d="M581.963 1434C694.293 1434 701.463 1434 811.403 1008.58C835.303 910.589 865.178 795.869 901.028 662.029C912.685 625.187 936.011 593.138 967.484 570.718C998.958 548.299 1036.87 536.727 1075.5 537.749C1113.41 536.283 1150.78 547.132 1182.02 568.673C1213.25 590.214 1236.67 621.289 1248.77 657.249L1535.57 1724.38C1537.38 1730.59 1541.16 1736.04 1546.33 1739.92C1551.5 1743.8 1557.79 1745.89 1564.25 1745.89C1570.72 1745.89 1577.01 1743.8 1582.18 1739.92C1587.35 1736.04 1591.12 1730.59 1592.93 1724.38L1754.26 1211.73C1766.01 1177.9 1787.69 1148.39 1816.47 1127.07C1845.25 1105.76 1879.79 1093.61 1915.58 1092.23C1950.19 1089.57 1984.84 1096.95 2015.36 1113.48C2045.88 1130.01 2070.98 1155 2087.66 1185.44L2122.32 1252.36C2191.63 1392.17 2211.94 1425.63 2312.32 1425.63H2868C2866.89 1045.31 2714.74 681.011 2445.03 412.868C2175.32 144.725 1810.14 -5.29261 1429.82 -4.18335C1049.5 -3.07408 685.192 149.071 417.05 418.783C148.907 688.495 -1.11096 1053.68 -0.00170447 1434H581.963Z" fill="black"/>
</g>
<defs>
<clipPath id="clip0_493_3860">
<rect width="2868" height="2868" fill="white"/>
</clipPath>
</defs>
</svg>
